HIERARCHY
ROOT Pelvis
{
	OFFSET 0.000000 0.000000 0.000000
	CHANNELS 6 Xposition Yposition Zposition Xrotation Yrotation Zrotation
	JOINT LeftUpLeg_virtual
	{
		OFFSET 0.000000 0.000000 0.000000
		CHANNELS 3 Xrotation Yrotation Zrotation
		JOINT LeftUpLeg
		{
			OFFSET 18.735201 -5.666702 -4.541200
			CHANNELS 3 Xrotation Yrotation Zrotation
			JOINT LeftLeg
			{
				OFFSET -0.021200 -31.938179 0.493100
				CHANNELS 3 Xrotation Yrotation Zrotation
				JOINT LeftFoot
				{
					OFFSET 0.021200 -31.938179 -4.336299
					CHANNELS 3 Xrotation Yrotation Zrotation
					JOINT LeftToeBase
					{
						OFFSET 0.943001 -26.722000 15.023500
						CHANNELS 3 Xrotation Yrotation Zrotation
						End Site
						{
							OFFSET 0 0 0
						}
					}
				}
			}
		}
	}
	JOINT RightUpLeg_virtual
	{
		OFFSET 0.000000 0.000000 0.000000
		CHANNELS 3 Xrotation Yrotation Zrotation
		JOINT RightUpLeg
		{
			OFFSET -18.735201 -5.666702 -4.541200
			CHANNELS 3 Xrotation Yrotation Zrotation
			JOINT RightLeg
			{
				OFFSET 0.018946 -31.938133 0.493100
				CHANNELS 3 Xrotation Yrotation Zrotation
				JOINT RightFoot
				{
					OFFSET -0.018946 -31.938126 -4.336299
					CHANNELS 3 Xrotation Yrotation Zrotation
					JOINT RightToeBase
					{
						OFFSET -0.943001 -26.722004 15.023500
						CHANNELS 3 Xrotation Yrotation Zrotation
						End Site
						{
							OFFSET 0 0 0
						}
					}
				}
			}
		}
	}
	JOINT Hips_virtual
	{
		OFFSET 0.000000 0.000000 0.000000
		CHANNELS 3 Xrotation Yrotation Zrotation
		JOINT Hips
		{
			OFFSET -0.000000 -0.000000 -0.000000
			CHANNELS 3 Xrotation Yrotation Zrotation
			JOINT Spine
			{
				OFFSET 0.000000 10.199997 -0.299500
				CHANNELS 3 Xrotation Yrotation Zrotation
				JOINT Spine1
				{
					OFFSET 0.000000 11.900002 -1.516600
					CHANNELS 3 Xrotation Yrotation Zrotation
					JOINT Spine2
					{
						OFFSET 0.000000 13.600006 -2.842500
						CHANNELS 3 Xrotation Yrotation Zrotation
						JOINT Neck_virtual
						{
							OFFSET 0.000000 0.000000 0.000000
							CHANNELS 3 Xrotation Yrotation Zrotation
							JOINT Neck
							{
								OFFSET 0.000000 9.624100 -2.890100
								CHANNELS 3 Xrotation Yrotation Zrotation
								JOINT Head
								{
									OFFSET 0.000000 14.068802 -1.351900
									CHANNELS 3 Xrotation Yrotation Zrotation
									End Site
									{
										OFFSET 0 0 0
									}
								}
							}
						}
						JOINT LeftShoulder_virtual
						{
							OFFSET 0.000000 0.000000 0.000000
							CHANNELS 3 Xrotation Yrotation Zrotation
							JOINT LeftShoulder
							{
								OFFSET 15.263000 10.923401 -0.547700
								CHANNELS 3 Xrotation Yrotation Zrotation
								JOINT LeftArm
								{
									OFFSET 25.438599 -2.830597 -13.032500
									CHANNELS 3 Xrotation Yrotation Zrotation
									JOINT LeftForeArm
									{
										OFFSET 29.960503 0.000000 0.000000
										CHANNELS 3 Xrotation Yrotation Zrotation
										JOINT LeftHand
										{
											OFFSET 27.849251 0.000000 0.000000
											CHANNELS 3 Xrotation Yrotation Zrotation
											End Site
											{
												OFFSET 0 0 0
											}
										}
									}
								}
							}
						}
						JOINT RightShoulder_virtual
						{
							OFFSET 0.000000 0.000000 0.000000
							CHANNELS 3 Xrotation Yrotation Zrotation
							JOINT RightShoulder
							{
								OFFSET -15.263000 10.923401 -0.547700
								CHANNELS 3 Xrotation Yrotation Zrotation
								JOINT RightArm
								{
									OFFSET -25.438599 -2.830597 -13.032500
									CHANNELS 3 Xrotation Yrotation Zrotation
									JOINT RightForeArm
									{
										OFFSET -29.960503 0.000000 0.000000
										CHANNELS 3 Xrotation Yrotation Zrotation
										JOINT RightHand
										{
											OFFSET -27.849251 0.000000 0.000000
											CHANNELS 3 Xrotation Yrotation Zrotation
											End Site
											{
												OFFSET 0 0 0
											}
										}
									}
								}
							}
						}
					}
				}
			}
		}
	}
}
MOTION
Frames: 9
Frame Time: 0.03333333
-4.572051 120.648941 10.559122 0.000000 0.000000 0.000000 3.635593 -35.651320 3.449169 -91.356984 -26.306955 25.769728 81.577703 1.052007 7.955378 8.125120 -1.279240 0.028129 0.000000 0.000000 0.000000 3.635593 -35.651320 3.449169 -139.236780 -41.012827 -10.433180 117.365955 16.169735 -14.869327 34.775946 5.270605 34.358850 0.000000 0.000000 0.000000 3.635593 -35.651320 3.449169 0.000000 -0.000001 0.000000 31.678127 -6.218031 -9.573795 14.129379 0.964740 -3.082677 0.000000 0.000000 0.000000 14.083574 0.916920 -3.297919 -2.089166 4.124735 -2.779633 0.000000 0.000000 0.000000 14.083574 0.916920 -3.297919 11.474046 -16.374139 4.408426 -62.668789 -4.844739 -3.758214 45.767646 -24.019405 29.511130 0.000000 0.000000 0.000000 14.083574 0.916920 -3.297919 18.189205 24.092150 -9.603804 -33.453122 6.374205 2.980965 -41.939226 39.311140 29.275895 0.000000 0.000000 0.000000 
-4.555941 120.617783 10.463593 0.000000 0.000000 0.000000 3.684853 -35.849409 3.558035 -91.343897 -26.278564 25.806965 81.508636 0.952458 7.910379 8.142464 -1.065812 -0.114893 0.000000 0.000000 0.000000 3.684853 -35.849409 3.558035 -138.849358 -41.073950 -10.467002 117.179900 16.281576 -14.876663 34.445867 5.159598 34.181873 0.000000 0.000000 0.000000 3.684853 -35.849409 3.558035 0.000000 0.000000 0.000000 31.675941 -6.242598 -9.592646 14.121944 0.960002 -3.082259 0.000000 0.000000 0.000000 14.068815 0.912810 -3.297121 -2.076836 4.135820 -2.778969 0.000000 0.000000 0.000000 14.068815 0.912810 -3.297121 11.267117 -16.494268 3.552181 -61.836373 -4.277147 -3.867885 45.655286 -23.778470 29.256671 0.000000 0.000000 0.000000 14.068815 0.912810 -3.297121 17.871448 24.380049 -8.840627 -32.509668 6.730319 2.966674 -41.608078 38.845161 28.745701 0.000000 0.000000 0.000000 
-4.531020 120.580292 10.369881 0.000000 0.000000 0.000000 3.738630 -35.998147 3.668284 -91.277685 -26.227112 25.848472 81.365571 0.901787 7.893825 8.134619 -0.951486 -0.284666 0.000000 0.000000 0.000000 3.738630 -35.998147 3.668284 -138.398648 -41.108118 -10.470837 116.991360 16.382832 -14.882137 34.092206 5.043616 34.056662 0.000000 0.000000 0.000000 3.738630 -35.998147 3.668284 0.000000 -0.000002 0.000000 31.645916 -6.259864 -9.602162 14.084170 0.946256 -3.078776 0.000000 0.000000 0.000000 14.024736 0.902261 -3.293464 -2.067270 4.149693 -2.773353 0.000000 0.000000 0.000000 14.024736 0.902261 -3.293464 11.087249 -16.530110 2.819712 -61.258853 -3.422804 -3.756280 45.583532 -23.623768 29.096162 0.000000 0.000000 0.000000 14.024736 0.902261 -3.293464 17.522809 24.569657 -8.065060 -31.766588 6.787546 2.888678 -41.306286 38.411765 28.260084 0.000000 0.000000 0.000000 
-4.507222 120.538055 10.284103 0.000000 0.000000 0.000000 3.795940 -36.087366 3.779071 -91.186488 -26.143717 25.843482 81.168527 1.011329 7.949946 8.095456 -1.023342 -0.347192 0.000000 0.000000 0.000000 3.795940 -36.087366 3.779071 -137.909893 -41.109010 -10.470023 116.811084 16.524336 -14.889191 33.690902 4.935938 34.014998 0.000000 0.000000 0.000000 3.795940 -36.087366 3.779071 0.000000 -0.000002 0.000000 31.598583 -6.273116 -9.603171 14.021887 0.921091 -3.071937 0.000000 0.000000 0.000000 13.962281 0.883283 -3.285273 -2.062353 4.170059 -2.763347 0.000000 0.000000 0.000000 13.962281 0.883283 -3.285273 10.892965 -16.486470 2.082171 -60.703491 -2.446169 -3.677434 45.522794 -23.492936 28.962335 0.000000 0.000000 0.000000 13.962281 0.883283 -3.285273 17.154416 24.738913 -7.233023 -30.927445 6.665490 2.774248 -41.041377 38.023530 27.831313 0.000000 0.000000 0.000000 
-4.495762 120.505005 10.183510 0.000000 0.000000 0.000000 3.855446 -36.171084 3.897776 -91.042358 -25.981599 25.825254 80.964359 1.254374 8.068566 7.921267 -1.051006 -0.359633 0.000000 0.000000 0.000000 3.855446 -36.171084 3.897776 -137.392342 -41.114184 -10.449693 116.613432 16.632766 -14.897877 33.290762 4.822944 33.948981 0.000000 0.000000 0.000000 3.855446 -36.171084 3.897776 0.000000 0.000000 0.000000 31.521986 -6.283382 -9.605603 13.939563 0.894849 -3.064078 0.000000 0.000000 0.000000 13.883521 0.860884 -3.274864 -2.060921 4.186301 -2.741716 0.000000 0.000000 0.000000 13.883521 0.860884 -3.274864 10.735040 -16.337290 1.386317 -60.173338 -1.363574 -3.614973 45.514810 -23.476707 28.951942 0.000000 0.000000 0.000000 13.883521 0.860884 -3.274864 16.731838 24.898374 -6.280344 -30.228426 6.296630 2.609972 -40.812163 37.681334 27.458122 0.000000 0.000000 0.000000 
-4.497730 120.474792 10.087927 0.000000 0.000000 0.000000 3.916128 -36.252742 4.019262 -90.821463 -25.805751 25.972713 80.848662 0.153873 7.498288 7.669326 0.187181 -0.412114 0.000000 0.000000 0.000000 3.916128 -36.252742 4.019262 -136.920622 -41.131071 -10.432474 116.439371 16.735492 -14.906012 32.885059 4.709652 33.873435 0.000000 0.000000 0.000000 3.916128 -36.252742 4.019262 0.000000 -0.000001 0.000000 31.404445 -6.285094 -9.605380 13.829180 0.878559 -3.055083 0.000000 0.000000 0.000000 13.789073 0.840569 -3.264782 -2.045001 4.194978 -2.726232 0.000000 0.000000 0.000000 13.789073 0.840569 -3.264782 10.586205 -16.074446 0.690739 -59.669728 -0.103453 -3.407540 45.509072 -23.467671 28.949835 0.000000 0.000000 0.000000 13.789073 0.840569 -3.264782 16.299201 25.012675 -5.338983 -29.588499 5.724231 2.407799 -40.616178 37.384514 27.137545 0.000000 0.000000 0.000000 
-4.504900 120.451477 9.999523 0.000000 0.000000 0.000000 3.977654 -36.336159 4.140689 -90.576293 -25.610616 26.011794 80.632425 0.028759 7.427692 7.386323 0.465378 -0.434458 0.000000 0.000000 0.000000 3.977654 -36.336159 4.140689 -136.471565 -41.139971 -10.413755 116.269245 16.836433 -14.913602 32.498221 4.596849 33.792409 0.000000 0.000000 0.000000 3.977654 -36.336159 4.140689 0.000000 0.000000 0.000000 31.246370 -6.272288 -9.593302 13.709089 0.874859 -3.047963 0.000000 0.000000 0.000000 13.675677 0.830845 -3.256753 -2.046423 4.193883 -2.732051 0.000000 0.000000 0.000000 13.675677 0.830845 -3.256753 10.445845 -15.713977 0.015675 -59.222856 1.242574 -3.173079 45.509178 -23.473431 28.963410 0.000000 0.000000 0.000000 13.675677 0.830845 -3.256753 15.883414 25.065111 -4.464588 -29.019152 5.005181 2.195807 -40.450108 37.131497 26.866231 0.000000 0.000000 0.000000 
-4.521339 120.440430 9.918978 0.000000 0.000000 0.000000 4.039552 -36.423425 4.261077 -90.260479 -25.417434 26.100140 80.405520 -0.224229 7.298740 7.002638 0.817821 -0.532904 0.000000 0.000000 0.000000 4.039552 -36.423425 4.261077 -136.130041 -41.153102 -10.408023 116.139225 16.876226 -14.916686 32.155533 4.500520 33.663865 0.000000 0.000000 0.000000 4.039552 -36.423425 4.261077 0.000000 0.000001 0.000000 31.067242 -6.230528 -9.550689 13.586276 0.877308 -3.036973 0.000000 0.000000 0.000000 13.547662 0.831893 -3.248913 -2.035442 4.186746 -2.737256 0.000000 0.000000 0.000000 13.547662 0.831893 -3.248913 10.297256 -15.271157 -0.647840 -58.848609 2.671684 -2.870559 45.519007 -23.501247 28.999733 0.000000 0.000000 0.000000 13.547662 0.831893 -3.248913 15.533896 25.035048 -3.731465 -28.502869 3.868205 1.818861 -40.435481 37.112772 26.845469 0.000000 0.000000 0.000000 
-4.550923 120.445641 9.855152 0.000000 0.000000 0.000000 4.100998 -36.513317 4.381119 -89.901299 -25.198603 26.189206 80.179884 -0.429407 7.193206 6.519067 1.077433 -0.616408 0.000000 0.000000 0.000000 4.100998 -36.513317 4.381119 -135.886846 -41.178138 -10.402578 116.049121 16.949365 -14.921120 31.853250 4.392316 33.530703 0.000000 0.000000 0.000000 4.100998 -36.513317 4.381119 0.000000 0.000001 0.000000 30.883776 -6.165419 -9.484879 13.456560 0.884665 -3.016204 0.000000 0.000000 0.000000 13.410881 0.838442 -3.232907 -2.028199 4.174667 -2.744923 0.000000 0.000000 0.000000 13.410881 0.838442 -3.232907 10.133978 -14.753799 -1.287102 -58.566372 4.199301 -2.426648 45.539627 -23.552149 29.058070 0.000000 0.000000 0.000000 13.410881 0.838442 -3.232907 15.255600 24.916175 -3.162918 -28.071172 2.550423 1.403058 -40.630845 37.415981 27.169526 0.000000 0.000000 0.000000 
